<?xml version="1.0" standalone="no"?>
<!DOCTYPE svg PUBLIC "-//W3C//DTD SVG 20010904//EN"
 "http://www.w3.org/TR/2001/REC-SVG-20010904/DTD/svg10.dtd">
<svg version="1.0" xmlns="http://www.w3.org/2000/svg"
 width="512.000000pt" height="512.000000pt" viewBox="0 0 512.000000 512.000000"
 preserveAspectRatio="xMidYMid meet">
<metadata>
Created by potrace 1.11, written by Peter Selinger 2001-2013
</metadata>
<g transform="translate(0.000000,512.000000) scale(0.100000,-0.100000)"
fill="#000000" stroke="none">
<path d="M2460 4623 c-167 -58 -252 -226 -204 -403 20 -73 94 -153 176 -192
46 -22 48 -24 48 -65 l0 -43 -622 -1 c-343 0 -630 -2 -638 -4 -154 -31 -262
-120 -316 -261 -18 -46 -19 -86 -19 -740 l0 -690 37 -76 c45 -91 103 -147 196
-191 l67 -32 303 -3 302 -4 15 -28 c24 -46 132 -136 206 -172 69 -33 88 -57
47 -59 -13 0 -31 -2 -41 -4 -10 -2 -49 -6 -85 -9 -37 -3 -76 -8 -87 -10 -11
-2 -42 -7 -70 -10 -241 -34 -679 -132 -787 -177 -112 -47 -153 -110 -228 -348
-51 -163 -49 -180 25 -220 28 -15 82 -40 120 -55 39 -16 88 -37 110 -46 99
-43 457 -159 538 -174 12 -2 72 -15 132 -29 61 -13 131 -28 156 -31 25 -4 58
-9 72 -11 15 -3 39 -7 55 -10 15 -2 52 -7 82 -10 30 -3 64 -8 75 -10 125 -26
733 -26 875 0 14 3 44 7 65 9 79 9 189 27 284 46 54 11 106 22 117 24 243 49
738 218 879 301 64 37 66 63 16 198 -84 224 -137 299 -263 367 -71 38 -419
129 -653 170 -33 5 -69 12 -81 14 -11 2 -47 7 -80 10 -32 4 -84 9 -114 12 -30
4 -66 8 -80 9 -44 3 -50 5 -50 13 0 4 31 22 69 40 76 37 168 113 201 166 l21
35 297 4 c163 2 304 6 312 9 8 2 32 12 54 21 21 9 42 17 47 17 5 0 36 27 69
59 40 40 71 82 93 128 l32 68 0 696 0 695 -38 76 c-58 118 -156 195 -277 218
-32 6 -299 10 -667 10 l-614 0 3 47 c3 45 5 47 43 60 53 17 134 95 165 158 35
73 35 199 0 269 -33 65 -94 126 -155 155 -64 30 -171 37 -235 14z"/>
</g>
</svg>
